<svg id="Layer_1" data-name="Layer 1" xmlns="http://www.w3.org/2000/svg" viewBox="0 0 1287.91 272.54"><defs><style>.cls-1{fill:#fff;}.cls-2{fill:#2eb362;}.cls-3{fill:#f0b92b;}.cls-4{fill:#f96c5a;}.cls-5{fill:#d74c35;}.cls-6{fill:#36d700;}.cls-7{fill:#38d07b;}.cls-8{fill:#f7e346;}.cls-9{fill:#405149;}</style></defs><path class="cls-1" d="M430.54,100.56,395.11,17.43h-37L323,100.56l-35,82.92H324.8l14.81-39.55h72.14L427,183.48h38.85Zm-79.61,13.78,5.25-13.78,19-50,19.78,50,5.43,13.78Z" transform="translate(-124.02 3.09)"/><path class="cls-1" d="M628.83,182.58,588,114.34q15.16-3.66,23.37-13.78a34.86,34.86,0,0,0,2.18-3q8.21-12.59,8-29.94c0-1.08,0-2.16-.11-3.24s-.11-2.16-.11-3.23a58.64,58.64,0,0,0-3.82-16.65,38.51,38.51,0,0,0-9.36-14.1A36.2,36.2,0,0,0,592,20.91a84.93,84.93,0,0,0-18.6-3c-1.7-.17-3.37-.24-5-.24s-3.27-.08-5-.24h-86v166h34.92V118.27h41.16l36.54,65.21h39.31ZM512.35,47h42.78v.24a71.11,71.11,0,0,1,21.39,3c6.4,2,9.6,7.94,9.6,17.8q.23,14.34-8.91,17.7A58.41,58.41,0,0,1,557,89.13h-.93a1.89,1.89,0,0,1-.92-.24H512.35Z" transform="translate(-124.02 3.09)"/><path class="cls-1" d="M771,100.56,735.52,17.43h-37l-35.09,83.13-34.6,82-.39.9h36.77L680,143.93h72.15l15.26,39.55h38.85Zm-79.6,13.78,5.23-13.78,19-50,19.77,50,5.43,13.78Z" transform="translate(-124.02 3.09)"/><path class="cls-1" d="M895,100.56l-1.56-2,66.6-81.18H918.21L852.76,97.22V17.43H817.83v166h34.93V100.93l63.36,82.55h44.63Z" transform="translate(-124.02 3.09)"/><path class="cls-1" d="M1041.45,46.35h57.36V17.43l-58,.24q-37.69,0-56.54,18.51T962.84,94c-.17,2.19-.26,4.39-.33,6.58a2.3,2.3,0,0,0,0,.37,69.32,69.32,0,0,0,.11,7.17,112.44,112.44,0,0,0,6,33.42A60,60,0,0,0,988,169.14a56.11,56.11,0,0,0,24.62,11.79,141.69,141.69,0,0,0,27.18,2.55h59v-28.9l-57.36.23h-2.06a73.84,73.84,0,0,1-14.93-1.51,22.23,22.23,0,0,1-12.6-7.74,33.8,33.8,0,0,1-8-14.8,71.32,71.32,0,0,1-2-16.88h96.9V85l-96.66.24q1.14-18.49,10.64-28.55T1041.45,46.35Z" transform="translate(-124.02 3.09)"/><path class="cls-1" d="M1197.79,46.35h57.36V17.43l-58.06.24q-37.69,0-56.54,18.51T1119.15,94c-.14,2.19-.23,4.39-.33,6.58,0,.13,0,.24,0,.37-.08,2.3,0,4.7.12,7.17a112.12,112.12,0,0,0,6,33.42,60.07,60.07,0,0,0,19.43,27.62A56.06,56.06,0,0,0,1169,180.93a141.46,141.46,0,0,0,27.18,2.55h59v-28.9l-57.36.23h-2.09a73.72,73.72,0,0,1-14.91-1.51,22.19,22.19,0,0,1-12.6-7.74,33.88,33.88,0,0,1-8-14.8,70.8,70.8,0,0,1-2-16.88h96.91V85l-96.67.24q1.15-18.49,10.63-28.55T1197.79,46.35Z" transform="translate(-124.02 3.09)"/><path class="cls-1" d="M1268.55,17.67V46.59H1322V183.48h36.09V46.59h53.89V17.67Z" transform="translate(-124.02 3.09)"/><path class="cls-1" d="M407.29,255.72a32.55,32.55,0,0,0,15.55,4.1c7.54,0,11.74-3.53,11.74-8.78,0-4.86-3.25-7.73-11.45-10.68-10.59-3.82-17.36-9.45-17.36-18.7,0-10.49,8.77-18.51,22.7-18.51,7,0,12.12,1.53,15.45,3.25l-2.86,9.44a27.22,27.22,0,0,0-12.78-3.05c-7.44,0-10.69,4-10.69,7.72,0,5,3.73,7.25,12.31,10.59,11.16,4.2,16.6,9.83,16.6,19.08,0,10.31-7.82,19.27-24.42,19.27-6.77,0-13.83-1.9-17.36-4Z" transform="translate(-124.02 3.09)"/><path class="cls-1" d="M530.83,268.5V241.69L510.51,204.2h13.35l7.73,16.51c2.19,4.77,3.82,8.39,5.53,12.78h.19c1.63-4.1,3.44-8.11,5.63-12.78l7.73-16.51h13.26l-21.37,37.21V268.5Z" transform="translate(-124.02 3.09)"/><path class="cls-1" d="M627.84,255.72a32.55,32.55,0,0,0,15.55,4.1c7.54,0,11.74-3.53,11.74-8.78,0-4.86-3.25-7.73-11.45-10.68-10.59-3.82-17.36-9.45-17.36-18.7,0-10.49,8.77-18.51,22.7-18.51,7,0,12.12,1.53,15.46,3.25l-2.87,9.44a27.22,27.22,0,0,0-12.78-3.05c-7.44,0-10.68,4-10.68,7.72,0,5,3.72,7.25,12.3,10.59,11.16,4.2,16.6,9.83,16.6,19.08,0,10.31-7.82,19.27-24.42,19.27-6.77,0-13.83-1.9-17.36-4Z" transform="translate(-124.02 3.09)"/><path class="cls-1" d="M749.09,214H730.77V204.2h48.56V214H760.82V268.5H749.09Z" transform="translate(-124.02 3.09)"/><path class="cls-1" d="M882,240H857.74v18.88h27.09v9.64H846V204.2H883.4v9.64H857.74v16.6H882Z" transform="translate(-124.02 3.09)"/><path class="cls-1" d="M1008.56,242.27c-.38-8.3-.86-18.32-.76-27h-.29c-2.1,7.82-4.77,16.5-7.63,24.61l-9.35,27.86h-9.06l-8.59-27.48c-2.48-8.2-4.77-17-6.48-25h-.19c-.29,8.39-.67,18.6-1.15,27.38l-1.43,25.85h-11L957,204.2h15.46l8.39,25.85c2.29,7.54,4.29,15.17,5.92,22.33H987c1.72-7,3.91-14.88,6.39-22.42l8.88-25.76h15.26l3.72,64.3H1009.8Z" transform="translate(-124.02 3.09)"/><path class="cls-1" d="M1092,255.72a32.55,32.55,0,0,0,15.55,4.1c7.54,0,11.73-3.53,11.73-8.78,0-4.86-3.24-7.73-11.44-10.68-10.59-3.82-17.37-9.45-17.37-18.7,0-10.49,8.78-18.51,22.71-18.51,7,0,12.11,1.53,15.45,3.25l-2.86,9.44a27.22,27.22,0,0,0-12.78-3.05c-7.44,0-10.69,4-10.69,7.72,0,5,3.72,7.25,12.31,10.59,11.16,4.2,16.6,9.83,16.6,19.08,0,10.31-7.82,19.27-24.42,19.27-6.78,0-13.84-1.9-17.37-4Z" transform="translate(-124.02 3.09)"/><polygon class="cls-1" points="264.85 249.93 0 239.39 0 239.39 264.85 228.85 264.85 249.93"/><polygon class="cls-1" points="1023.05 249.93 1287.91 239.39 1287.91 239.39 1023.05 228.85 1023.05 249.93"/><path class="cls-1" d="M188.05-2.75v186.9H152V17.43c13.37-6,28.34-15.29,32.12-20.52l3.94.23S188.05-2.79,188.05-2.75Z" transform="translate(-124.02 3.09)"/><path class="cls-1" d="M283.41,62.13a61.48,61.48,0,0,1-98.93,48.76c-1.49-1.14-2.93-2.36-4.3-3.63A61.48,61.48,0,1,1,283.41,62.13Z" transform="translate(-124.02 3.09)"/><circle cx="97.91" cy="65.21" r="58.39"/><path class="cls-2" d="M217.34,8.28s-38.84,3.88-47.6,48.31c0,0-1.79,17.83,3,28.29,0,0,12.25-22.81,44.61-25.9Z" transform="translate(-124.02 3.09)"/><path class="cls-3" d="M275,51.45C255,31.5,225,35.35,225,35.35v-14s31.16,5.37,31.51,5.29a11.3,11.3,0,0,1,6.78.57A59.36,59.36,0,0,1,275,51.43Z" transform="translate(-124.02 3.09)"/><path class="cls-4" d="M270,59.15H225V44.52a50.21,50.21,0,0,1,38,8.64A54.22,54.22,0,0,1,270,59.15Z" transform="translate(-124.02 3.09)"/><path class="cls-5" d="M270,59.15H225V53.79l38-.63A54.22,54.22,0,0,1,270,59.15Z" transform="translate(-124.02 3.09)"/><path class="cls-6" d="M177.67,94.23S187.88,74.59,210.1,69a38.73,38.73,0,0,1,9-1.14l57.13-.78s-2.3,52.64-61.18,49.16C215.09,116.25,190.6,113.68,177.67,94.23Z" transform="translate(-124.02 3.09)"/><path class="cls-2" d="M183.72,94.51s14.88-21.83,38.22-22.29l53.78-.59S245,145,183.72,94.51Z" transform="translate(-124.02 3.09)"/><path class="cls-7" d="M212.58,9.19s-34.44,3.54-43.45,42.08a28.74,28.74,0,0,0-.72,5c-.26,5-.71,16.4,2.64,23.75,0,0,11.57-21.17,41.38-24Z" transform="translate(-124.02 3.09)"/><path class="cls-8" d="M275,51.43C274.61,50.56,262.57,22.59,225,23V8.17s22.78.2,38.29,19A59.36,59.36,0,0,1,275,51.43Z" transform="translate(-124.02 3.09)"/><path class="cls-1" d="M196.52,23.29a9.44,9.44,0,0,0-3.21.53,9.9,9.9,0,0,0,0,18.73,9.45,9.45,0,0,0,3.21.54,9.9,9.9,0,0,0,0-19.8Zm5.11,7.88a3,3,0,0,1-1.79.58,3,3,0,0,1-3-3.05,2.94,2.94,0,0,1,.17-1A5.46,5.46,0,0,1,201.63,31.17Z" transform="translate(-124.02 3.09)"/><path class="cls-9" d="M202,33.19a5.51,5.51,0,1,1-5.51-5.5,3.46,3.46,0,0,1,.46,0,3,3,0,0,0-.17,1,3.05,3.05,0,0,0,4.84,2.46A5.62,5.62,0,0,1,202,33.19Z" transform="translate(-124.02 3.09)"/></svg>